<svg width="21" height="21" viewBox="0 0 21 21" fill="none" xmlns="http://www.w3.org/2000/svg">
<path d="M10.5 18.375C10.5 18.8589 10.108 19.25 9.625 19.25H4.375C1.96263 19.25 0 17.2874 0 14.875V4.375C0 1.96263 1.96263 0 4.375 0H14.875C17.2874 0 19.25 1.96263 19.25 4.375V9.625C19.25 10.1089 18.858 10.5 18.375 10.5C17.892 10.5 17.5 10.1089 17.5 9.625V4.375C17.5 2.92775 16.3223 1.75 14.875 1.75H4.375C2.92775 1.75 1.75 2.92775 1.75 4.375V10.4641L4.207 8.00712C5.5475 6.66575 7.72888 6.66575 9.07025 8.00712L13.7436 12.6805C14.0857 13.0226 14.0857 13.5756 13.7436 13.9178C13.573 14.0884 13.349 14.1741 13.125 14.1741C12.901 14.1741 12.677 14.0884 12.5064 13.9178L7.833 9.24437C7.175 8.58725 6.104 8.58637 5.44425 9.24437L1.75 12.9386V14.875C1.75 16.3223 2.92775 17.5 4.375 17.5H9.625C10.108 17.5 10.5 17.8911 10.5 18.375ZM13.125 3.0625C14.5723 3.0625 15.75 4.24025 15.75 5.6875C15.75 7.13475 14.5723 8.3125 13.125 8.3125C11.6777 8.3125 10.5 7.13475 10.5 5.6875C10.5 4.24025 11.6777 3.0625 13.125 3.0625ZM13.125 4.8125C12.6429 4.8125 12.25 5.2045 12.25 5.6875C12.25 6.1705 12.6429 6.5625 13.125 6.5625C13.6071 6.5625 14 6.1705 14 5.6875C14 5.2045 13.6071 4.8125 13.125 4.8125ZM20.125 15.75H17.5V13.125C17.5 12.6411 17.108 12.25 16.625 12.25C16.142 12.25 15.75 12.6411 15.75 13.125V15.75H13.125C12.642 15.75 12.25 16.1411 12.25 16.625C12.25 17.1089 12.642 17.5 13.125 17.5H15.75V20.125C15.75 20.6089 16.142 21 16.625 21C17.108 21 17.5 20.6089 17.5 20.125V17.5H20.125C20.608 17.5 21 17.1089 21 16.625C21 16.1411 20.608 15.75 20.125 15.75Z" fill="#049BB9"/>
</svg>
