<svg width="19" height="20" viewBox="0 0 19 20" fill="none" xmlns="http://www.w3.org/2000/svg">
<path d="M18.4215 11.3818L16.7988 5.6858C16.3232 4.0171 15.2894 2.55139 13.8619 1.52166C12.4345 0.491935 10.6951 -0.0427253 8.92041 0.00266955C7.1457 0.0480644 5.43747 0.67091 4.06725 1.7722C2.69703 2.87349 1.74345 4.39003 1.35809 6.08075L0.101755 11.5926C-0.0370176 12.2017 -0.0338091 12.8333 0.111144 13.441C0.256097 14.0487 0.539094 14.6168 0.93924 15.1035C1.33939 15.5902 1.84646 15.983 2.42304 16.2529C2.99961 16.5228 3.63096 16.6629 4.27047 16.6629H5.2219C5.41792 17.6047 5.94165 18.4514 6.70434 19.0596C7.46704 19.6678 8.42179 20 9.40684 20C10.3919 20 11.3466 19.6678 12.1093 19.0596C12.872 18.4514 13.3958 17.6047 13.5918 16.6629H14.3075C14.9658 16.6629 15.6152 16.5145 16.205 16.2291C16.7948 15.9438 17.309 15.5293 17.7074 15.0179C18.1058 14.5066 18.3776 13.9124 18.5016 13.2816C18.6257 12.6509 18.5977 12.0007 18.4215 11.3818ZM9.40684 18.3293C8.8788 18.3272 8.36433 18.166 7.93382 17.8677C7.50331 17.5694 7.17779 17.1486 7.00178 16.6629H11.8119C11.6359 17.1486 11.3104 17.5694 10.8798 17.8677C10.4493 18.166 9.93487 18.3272 9.40684 18.3293ZM16.347 14.009C16.109 14.317 15.8007 14.5667 15.4465 14.7381C15.0923 14.9095 14.702 14.9979 14.3066 14.9964H4.27047C3.8868 14.9963 3.50806 14.9122 3.16218 14.7502C2.8163 14.5883 2.51211 14.3526 2.27208 14.0606C2.03205 13.7686 1.8623 13.4277 1.77536 13.0632C1.68841 12.6986 1.6865 12.3196 1.76975 11.9542L3.02523 6.44154C3.32787 5.11353 4.07685 3.92233 5.15311 3.0573C6.22936 2.19228 7.57112 1.70306 8.96509 1.66743C10.3591 1.63181 11.7252 2.05181 12.8464 2.86068C13.9676 3.66954 14.7795 4.82085 15.153 6.13158L16.7757 11.8276C16.883 12.1987 16.9 12.5891 16.8256 12.9677C16.7512 13.3464 16.5873 13.7029 16.347 14.009Z" fill="#6B7280"/>
</svg>
