<svg width="21" height="20" viewBox="0 0 21 20" fill="none" xmlns="http://www.w3.org/2000/svg">
<path d="M10.25 0C8.22274 0 6.24101 0.58649 4.55541 1.6853C2.8698 2.78412 1.55604 4.3459 0.780239 6.17316C0.00444118 8.00043 -0.198543 10.0111 0.196955 11.9509C0.592454 13.8907 1.56867 15.6725 3.00216 17.0711C4.43565 18.4696 6.26202 19.422 8.25033 19.8078C10.2386 20.1937 12.2996 19.9957 14.1725 19.2388C16.0454 18.4819 17.6463 17.2002 18.7726 15.5557C19.8988 13.9112 20.5 11.9778 20.5 10C20.4971 7.34871 19.4162 4.80684 17.4946 2.9321C15.573 1.05736 12.9676 0.00286757 10.25 0ZM10.25 18.3333C8.56062 18.3333 6.90918 17.8446 5.50451 16.9289C4.09984 16.0132 3.00503 14.7117 2.35853 13.189C1.71203 11.6663 1.54288 9.99075 1.87246 8.37425C2.20205 6.75774 3.01556 5.27288 4.21013 4.10744C5.40471 2.94201 6.92669 2.14833 8.58361 1.82679C10.2405 1.50525 11.958 1.67027 13.5188 2.301C15.0795 2.93173 16.4136 3.99984 17.3521 5.37025C18.2907 6.74066 18.7917 8.35182 18.7917 10C18.7892 12.2094 17.8885 14.3276 16.2871 15.8899C14.6858 17.4522 12.5146 18.3309 10.25 18.3333Z" fill="#6B7280"/>
<path d="M10.2494 5C10.0228 5 9.80555 5.0878 9.64537 5.24408C9.48518 5.40036 9.39519 5.61232 9.39519 5.83333V9.4375L6.51579 11.1975C6.32323 11.3149 6.18635 11.502 6.13525 11.7179C6.08415 11.9337 6.12302 12.1605 6.24331 12.3483C6.3636 12.5362 6.55546 12.6697 6.77668 12.7196C6.9979 12.7694 7.23036 12.7315 7.42292 12.6142L10.7029 10.6142C10.8268 10.5384 10.9288 10.4329 10.9989 10.3077C11.069 10.1825 11.1051 10.0418 11.1035 9.89917V5.83333C11.1035 5.61232 11.0135 5.40036 10.8533 5.24408C10.6932 5.0878 10.4759 5 10.2494 5Z" fill="#6B7280"/>
</svg>
