<svg width="22" height="20" viewBox="0 0 22 20" fill="none" xmlns="http://www.w3.org/2000/svg">
<path d="M11.0185 20C5.47878 20 0.972656 15.5048 0.972656 9.98063C0.972656 4.78455 4.87814 0.497178 10.0578 0.00591645C10.4616 -0.0405666 10.828 0.190937 10.9829 0.556421C11.1388 0.920994 11.0394 1.34572 10.7377 1.60366C9.74063 2.45858 9.25575 3.93692 9.25575 6.12162C9.25575 10.7954 11.4104 11.7342 14.8875 11.7342C17.1314 11.7342 18.5697 11.2648 19.4155 10.2577C19.6707 9.95146 20.0981 9.85029 20.4645 10.0025C20.8328 10.1565 21.0579 10.532 21.0196 10.9294C20.532 16.1 16.2318 19.9991 11.0185 19.9991V20ZM8.0636 2.32278C4.94832 3.50399 2.79552 6.49167 2.79552 9.97972C2.79552 14.4995 6.485 18.1762 11.0185 18.1762C14.5111 18.1762 17.5033 16.0389 18.6936 12.9446C17.403 13.4723 15.9949 13.558 14.8866 13.558C11.6865 13.558 7.43197 12.7869 7.43197 6.12254C7.43197 4.61594 7.6416 3.35543 8.0636 2.32278Z" fill="#6B7280"/>
</svg>
