<svg width="24" height="24" viewBox="0 0 24 24" fill="none" xmlns="http://www.w3.org/2000/svg">
<g clip-path="url(#clip0_3599_187)">
<path d="M24.0003 4V8C24.0003 9.65 22.6503 11 21.0003 11H17.0003C15.3503 11 14.0003 9.65 14.0003 8V4C14.0003 2.35 15.3503 1 17.0003 1H21.0003C22.6503 1 24.0003 2.35 24.0003 4ZM21.0003 15H19.0003C17.3503 15 16.0003 16.35 16.0003 18V20C16.0003 21.65 17.3503 23 19.0003 23H21.0003C22.6503 23 24.0003 21.65 24.0003 20V18C24.0003 16.35 22.6503 15 21.0003 15ZM10.3103 18.28L7.00032 21.43V1C7.00032 0.45 6.55032 0 6.00032 0C5.45032 0 5.00032 0.45 5.00032 1V21.43L1.69032 18.28C1.29032 17.9 0.660317 17.91 0.280317 18.31C-0.0996832 18.71 -0.0896832 19.34 0.310317 19.72L3.88032 23.12C4.45032 23.69 5.20032 24 6.00032 24C6.80032 24 7.55032 23.69 8.10032 23.14L11.6903 19.73C12.0903 19.35 12.1103 18.72 11.7203 18.32C11.3403 17.92 10.7103 17.9 10.3103 18.29V18.28Z" fill="#212323"/>
</g>
<defs>
<clipPath id="clip0_3599_187">
<rect width="24" height="24" fill="white"/>
</clipPath>
</defs>
</svg>
