<svg width="20" height="20" viewBox="0 0 20 20" fill="none" xmlns="http://www.w3.org/2000/svg">
<path d="M15.832 19.9987H14.1654C13.9444 19.9987 13.7324 19.9109 13.5761 19.7546C13.4198 19.5983 13.332 19.3864 13.332 19.1654C13.332 18.9443 13.4198 18.7324 13.5761 18.5761C13.7324 18.4198 13.9444 18.332 14.1654 18.332H15.832C16.4951 18.332 17.131 18.0686 17.5998 17.5998C18.0686 17.131 18.332 16.4951 18.332 15.832V14.1654C18.332 13.9444 18.4198 13.7324 18.5761 13.5761C18.7324 13.4198 18.9443 13.332 19.1654 13.332C19.3864 13.332 19.5983 13.4198 19.7546 13.5761C19.9109 13.7324 19.9987 13.9444 19.9987 14.1654V15.832C19.9974 16.9367 19.558 17.9957 18.7768 18.7768C17.9957 19.558 16.9367 19.9974 15.832 19.9987Z" fill="#6B7280"/>
<path d="M0.833333 6.66666C0.612319 6.66666 0.400358 6.57887 0.244078 6.42259C0.0877974 6.26631 0 6.05434 0 5.83333V4.16667C0.00132321 3.062 0.440735 2.00296 1.22185 1.22185C2.00296 0.440735 3.062 0.00132321 4.16667 0L5.83333 0C6.05434 0 6.26631 0.0877974 6.42259 0.244078C6.57887 0.400358 6.66666 0.612319 6.66666 0.833333C6.66666 1.05435 6.57887 1.26631 6.42259 1.42259C6.26631 1.57887 6.05434 1.66667 5.83333 1.66667H4.16667C3.50362 1.66667 2.86774 1.93006 2.3989 2.3989C1.93006 2.86774 1.66667 3.50362 1.66667 4.16667V5.83333C1.66667 6.05434 1.57887 6.26631 1.42259 6.42259C1.26631 6.57887 1.05435 6.66666 0.833333 6.66666Z" fill="#6B7280"/>
<path d="M5.83333 19.9987H4.16667C3.062 19.9974 2.00296 19.558 1.22185 18.7768C0.440735 17.9957 0.00132321 16.9367 0 15.832L0 14.1654C0 13.9444 0.0877974 13.7324 0.244078 13.5761C0.400358 13.4198 0.612319 13.332 0.833333 13.332C1.05435 13.332 1.26631 13.4198 1.42259 13.5761C1.57887 13.7324 1.66667 13.9444 1.66667 14.1654V15.832C1.66667 16.4951 1.93006 17.131 2.3989 17.5998C2.86774 18.0686 3.50362 18.332 4.16667 18.332H5.83333C6.05434 18.332 6.26631 18.4198 6.42259 18.5761C6.57887 18.7324 6.66666 18.9443 6.66666 19.1654C6.66666 19.3864 6.57887 19.5983 6.42259 19.7546C6.26631 19.9109 6.05434 19.9987 5.83333 19.9987Z" fill="#6B7280"/>
<path d="M19.1654 6.66666C18.9443 6.66666 18.7324 6.57887 18.5761 6.42259C18.4198 6.26631 18.332 6.05434 18.332 5.83333V4.16667C18.332 3.50362 18.0686 2.86774 17.5998 2.3989C17.131 1.93006 16.4951 1.66667 15.832 1.66667H14.1654C13.9444 1.66667 13.7324 1.57887 13.5761 1.42259C13.4198 1.26631 13.332 1.05435 13.332 0.833333C13.332 0.612319 13.4198 0.400358 13.5761 0.244078C13.7324 0.0877974 13.9444 0 14.1654 0L15.832 0C16.9367 0.00132321 17.9957 0.440735 18.7768 1.22185C19.558 2.00296 19.9974 3.062 19.9987 4.16667V5.83333C19.9987 6.05434 19.9109 6.26631 19.7546 6.42259C19.5983 6.57887 19.3864 6.66666 19.1654 6.66666Z" fill="#6B7280"/>
</svg>
