<svg width="14" height="13" viewBox="0 0 14 13" fill="none" xmlns="http://www.w3.org/2000/svg">
<path d="M6.6625 0C5.34478 0 4.05666 0.381218 2.96102 1.09545C1.86537 1.80968 1.01142 2.82484 0.507155 4.01256C0.00288677 5.20028 -0.129053 6.50721 0.128021 7.76809C0.385095 9.02896 1.01964 10.1872 1.9514 11.0962C2.88317 12.0052 4.07031 12.6243 5.36271 12.8751C6.65511 13.1259 7.99472 12.9972 9.21213 12.5052C10.4295 12.0132 11.4701 11.1801 12.2022 10.1112C12.9343 9.04229 13.325 7.78558 13.325 6.5C13.3231 4.77666 12.6205 3.12445 11.3715 1.90586C10.1224 0.687282 8.42892 0.00186392 6.6625 0ZM6.6625 11.9167C5.5644 11.9167 4.49097 11.599 3.57793 11.0038C2.66489 10.4086 1.95327 9.56263 1.53305 8.57287C1.11282 7.5831 1.00287 6.49399 1.2171 5.44326C1.43133 4.39253 1.96011 3.42737 2.73659 2.66984C3.51306 1.9123 4.50235 1.39642 5.57934 1.18741C6.65634 0.97841 7.77268 1.08568 8.78719 1.49565C9.8017 1.90563 10.6688 2.59989 11.2789 3.49066C11.889 4.38143 12.2146 5.42868 12.2146 6.5C12.213 7.9361 11.6275 9.31294 10.5866 10.3284C9.54576 11.3439 8.13451 11.9151 6.6625 11.9167Z" fill="#049BB9"/>
<path d="M6.6611 3.25C6.51385 3.25 6.37263 3.30707 6.26851 3.40865C6.16439 3.51023 6.10589 3.64801 6.10589 3.79167V6.13437L4.23429 7.27837C4.10913 7.35466 4.02015 7.47632 3.98693 7.61661C3.95372 7.75689 3.97899 7.90431 4.05718 8.02642C4.13537 8.14853 4.26007 8.23533 4.40387 8.26774C4.54766 8.30014 4.69876 8.27549 4.82392 8.19921L6.95592 6.89921C7.03647 6.84997 7.10272 6.78138 7.14831 6.7C7.1939 6.61863 7.21732 6.52719 7.21631 6.43446V3.79167C7.21631 3.64801 7.15782 3.51023 7.05369 3.40865C6.94957 3.30707 6.80835 3.25 6.6611 3.25Z" fill="#049BB9"/>
</svg>
